<svg xmlns="http://www.w3.org/2000/svg" version="1.1" xmlns:xlink="http://www.w3.org/1999/xlink" xmlns:svgjs="http://svgjs.dev/svgjs" width="1500" height="1500" viewBox="0 0 1500 1500"><rect width="1500" height="1500" fill="#ffffff"></rect><g transform="matrix(0.6666666666666666,0,0,0.6666666666666666,249.39393939393938,438.58569500674764)"><svg viewBox="0 0 396 247" data-background-color="#c8c8c8" preserveAspectRatio="xMidYMid meet" height="935" width="1500" xmlns="http://www.w3.org/2000/svg" xmlns:xlink="http://www.w3.org/1999/xlink"><g id="tight-bounds" transform="matrix(1,0,0,1,0.2400000000000091,-0.09999999999999432)"><svg viewBox="0 0 395.52 247.2" height="247.2" width="395.52"><g><svg></svg></g><g><svg viewBox="0 0 395.52 247.2" height="247.2" width="395.52"><g transform="matrix(1,0,0,1,75.54432000000001,69.45381265822786)"><svg viewBox="0 0 244.43135999999996 108.29237468354428" height="108.29237468354428" width="244.43135999999996"><g><svg viewBox="0 0 244.43135999999996 108.29237468354428" height="108.29237468354428" width="244.43135999999996"><g><svg viewBox="0 0 244.43135999999996 108.29237468354428" height="108.29237468354428" width="244.43135999999996"><g><svg viewBox="0 0 244.43135999999996 108.29237468354428" height="108.29237468354428" width="244.43135999999996"><g id="textblocktransform"><svg viewBox="0 0 244.43135999999996 108.29237468354428" height="108.29237468354428" width="244.43135999999996" id="textblock"><g><svg viewBox="0 0 244.43135999999996 108.29237468354428" height="108.29237468354428" width="244.43135999999996"><g transform="matrix(1,0,0,1,0,0)"><svg width="244.43135999999996" viewBox="3.5 -36.15 82.94 36.75" height="108.29237468354428" data-palette-color="#000000"><path d="M3.5 0L3.5-34.3 23.3-34.3 23.3-30.3 7.9-30.3 7.9-19.2 21.5-19.2 21.5-15.2 7.9-15.2 7.9 0 3.5 0ZM27.55 0L27.55-36.15 31.65-36.15 31.65 0 27.55 0ZM45.55 0.6Q40.9 0.6 38.52-2.78 36.15-6.15 36.15-13.15L36.15-13.15Q36.15-20.15 38.52-23.53 40.9-26.9 45.55-26.9L45.55-26.9Q50.2-26.9 52.57-23.53 54.95-20.15 54.95-13.15L54.95-13.15Q54.95-6.15 52.57-2.78 50.2 0.6 45.55 0.6L45.55 0.6ZM45.55-3.05Q50.65-3.05 50.65-12.2L50.65-12.2 50.65-14.1Q50.65-23.25 45.55-23.25L45.55-23.25Q40.45-23.25 40.45-14.1L40.45-14.1 40.45-12.2Q40.45-3.05 45.55-3.05L45.55-3.05ZM63.54 0L56.99-26.3 61.49-26.3 64.79-11.5Q65.29-9.45 65.84-5.25L65.84-5.25 66.04-5.25Q66.39-8.95 66.84-11.5L66.84-11.5 69.49-26.3 74.24-26.3 76.94-11.5Q77.39-9 77.74-5.25L77.74-5.25 77.94-5.25Q78.39-8.65 78.99-11.5L78.99-11.5 82.29-26.3 86.44-26.3 79.89 0 75.34 0 72.59-15Q72.09-17.55 71.79-21.05L71.79-21.05 71.59-21.05Q71.24-17.6 70.79-15L70.79-15 68.09 0 63.54 0Z" opacity="1" transform="matrix(1,0,0,1,0,0)" fill="#000000" class="wordmark-text-0" data-fill-palette-color="primary" id="text-0"></path></svg></g></svg></g></svg></g></svg></g><g></g></svg></g></svg></g></svg></g><g><path d="M105.117 43.889A122.216 122.216 0 0 1 290.403 43.889L280.637 43.889A112.45 112.45 0 0 0 114.883 43.889L105.117 43.889M105.117 203.311A122.216 122.216 0 0 0 290.403 203.311L280.637 203.311A112.45 112.45 0 0 1 114.883 203.311L105.117 203.311" fill="#000000" stroke="transparent" data-fill-palette-color="tertiary"></path></g></svg></g><defs></defs></svg><rect width="395.52" height="247.2" fill="none" stroke="none" visibility="hidden"></rect></g></svg></g></svg>