<svg width="70" height="48" viewBox="0 0 70 48" fill="none" xmlns="http://www.w3.org/2000/svg">
<rect width="70" height="48" rx="6" fill="white"/>
<path d="M62.9867 21.1459L62.9999 21.1313H60.9076L59.5863 25.7115H59.5162L57.9992 21.1313H55.5127L58.5044 28.6899L57.2546 30.9939V31.0495H59.2067L62.9867 21.1459Z" fill="black"/>
<path d="M39.7911 21.1313H37.5718V28.6622H39.7911V21.1313Z" fill="black"/>
<path d="M55.0765 26.7788V23.6323C55.0765 21.9182 54.0647 20.9766 52.2806 20.9766C51.1418 20.9766 50.3562 21.1736 48.9225 21.6088L49.3153 23.3374C50.622 22.7475 51.1974 22.4949 51.8018 22.4949C52.5319 22.4949 52.8559 23.0147 52.8559 23.8162V23.8717C50.3125 24.3492 49.5256 24.6163 49.0349 25.1083C48.6699 25.4734 48.5151 25.9932 48.5151 26.5976C48.5151 28.0445 49.6393 28.8169 50.6921 28.8169C51.4791 28.8169 52.1113 28.522 52.9683 27.8752L53.1231 28.6622H55.3424L55.0765 26.7788ZM52.8572 26.8357C52.2673 27.1584 51.9301 27.2853 51.5373 27.2853C51.0029 27.2853 50.6657 26.9335 50.6657 26.3727C50.6657 26.1625 50.708 25.9508 50.876 25.7829C51.1431 25.5157 51.6629 25.3186 52.8572 25.0383V26.8357Z" fill="black"/>
<path d="M45.3128 20.9766C44.4981 20.9766 43.8658 21.286 43.149 21.8759V21.1313H40.9297V31.0494H43.149V28.5907C43.5709 28.7032 43.9637 28.76 44.4412 28.76C46.4224 28.76 48.2066 27.2986 48.2066 24.6997C48.2066 22.3679 46.9144 20.9766 45.3128 20.9766ZM43.9069 27.3687C43.6542 27.3687 43.4148 27.3409 43.1477 27.2562V23.1827C43.6119 22.8599 43.9902 22.7052 44.4676 22.7052C45.2969 22.7052 45.9569 23.3652 45.9569 24.7711C45.9582 26.5685 44.9887 27.3687 43.9069 27.3687Z" fill="black"/>
<path d="M18.7592 17.2521H9.24312C8.00385 17.2521 7 18.2652 7 19.5138V29.1105C7 30.3591 8.00385 31.3722 9.24312 31.3722H18.7592C19.9985 31.3722 21.001 30.3591 21.001 29.1105V19.5138C21.0023 18.2639 19.9985 17.2521 18.7592 17.2521Z" fill="#1677FF"/>
<path d="M18.5276 26.1188C17.9681 25.9297 17.2156 25.64 16.3784 25.3345C16.881 24.4523 17.283 23.4485 17.5475 22.3574H14.7873V21.3548H18.1678V20.7954H14.7873V19.1236H13.4078C13.1658 19.1236 13.1658 19.3643 13.1658 19.3643V20.794H9.74687V21.3535H13.1658V22.356H10.342V22.9155H15.8176C15.6179 23.6112 15.3481 24.2659 15.0293 24.8597C13.2531 24.2685 11.3565 23.7897 10.1661 24.0847C9.40432 24.2738 8.91364 24.6111 8.62531 24.9655C7.30272 26.5883 8.25102 29.0537 11.0443 29.0537C12.6963 29.0537 14.2873 28.1252 15.52 26.595C17.3597 27.4864 21.0008 29.0179 21.0008 29.0179V26.8357C21.0022 26.8357 20.5445 26.7986 18.5276 26.1188ZM10.7838 28.1106C8.60547 28.1106 7.96137 26.3807 9.03796 25.4337C9.39771 25.1136 10.0537 24.9576 10.4029 24.9232C11.6964 24.7949 12.8947 25.2922 14.3085 25.9879C13.3152 27.2946 12.0495 28.1106 10.7838 28.1106Z" fill="white"/>
<path d="M29.9432 18.7572H26.9647L23.6357 28.6622H25.6871L26.2492 26.7232H29.7752L30.3096 28.6622H32.9362L29.9432 18.7572ZM26.7121 25.107L28.032 20.5414H28.0876L29.3374 25.107H26.7121Z" fill="black"/>
<path d="M36.0533 18.4054H33.834V28.6608H36.0533V18.4054Z" fill="black"/>
<path d="M37.4023 19.3194C37.4023 20.0494 37.9367 20.5414 38.6813 20.5414C39.4259 20.5414 39.9602 20.0494 39.9602 19.3194C39.9602 18.6025 39.4259 18.0973 38.6813 18.0973C37.9367 18.0973 37.4023 18.6025 37.4023 19.3194Z" fill="#1677FF"/>
</svg>
