<svg width="70" height="48" viewBox="0 0 70 48" fill="none" xmlns="http://www.w3.org/2000/svg">
<rect width="70" height="48" rx="6" fill="white"/>
<path fill-rule="evenodd" clip-rule="evenodd" d="M37.6108 16.2839L34.055 17.047V14.1641L37.6108 13.4151V16.2839ZM23.1606 15.0544L19.704 15.7892L19.6898 27.109C19.6898 29.2006 21.2623 30.741 23.359 30.741C24.5207 30.741 25.3707 30.529 25.8382 30.2746V27.4058C25.3848 27.5895 23.1465 28.2396 23.1465 26.148V21.1312H25.8382V18.121H23.1465L23.1606 15.0544ZM60.9999 24.3533C60.9999 20.7355 59.2433 17.8808 55.8858 17.8808C52.5141 17.8808 50.4741 20.7355 50.4741 24.325C50.4741 28.5788 52.8824 30.7268 56.3391 30.7268C58.0249 30.7268 59.2999 30.3453 60.2633 29.8083V26.9818C59.2999 27.4623 58.1949 27.7591 56.7924 27.7591C55.4183 27.7591 54.1999 27.2786 54.0441 25.611H60.9716C60.9716 25.5332 60.9767 25.3563 60.9826 25.1525V25.1524V25.1524V25.1523C60.9905 24.8753 60.9999 24.5487 60.9999 24.3533ZM54.0015 23.0107C54.0015 21.4138 54.979 20.7496 55.8715 20.7496C56.7357 20.7496 57.6565 21.4138 57.6565 23.0107H54.0015ZM14.7883 20.9475C14.0375 20.9475 13.5841 21.1595 13.5841 21.7106C13.5841 22.3124 14.3643 22.5771 15.3322 22.9055C16.9102 23.4409 18.987 24.1455 18.9958 26.7558C18.9958 29.2854 16.97 30.741 14.0233 30.741C12.805 30.741 11.4733 30.5008 10.1558 29.9355V26.5721C11.3458 27.2221 12.8475 27.7026 14.0233 27.7026C14.8166 27.7026 15.3833 27.4906 15.3833 26.8406C15.3833 26.174 14.5375 25.8693 13.5165 25.5015C11.9615 24.9413 9.99994 24.2347 9.99994 21.8802C9.99994 19.3788 11.9124 17.8808 14.7883 17.8808C15.9641 17.8808 17.1258 18.0645 18.3016 18.5309V21.8519C17.225 21.2725 15.865 20.9475 14.7883 20.9475ZM30.2442 19.1668L30.0175 18.121H26.9575V30.4866H30.4992V22.1063C31.335 21.0181 32.7517 21.216 33.1909 21.3714V18.121C32.7376 17.9515 31.08 17.6406 30.2442 19.1668ZM34.0547 18.1211H37.6106V30.4866H34.0547V18.1211ZM42.2289 18.9831C42.7248 18.5309 43.6173 17.8808 45.0056 17.8808C47.4848 17.8808 49.8223 20.1137 49.8364 24.212C49.8364 28.6918 47.5273 30.7269 44.9914 30.7269C43.7448 30.7269 42.9939 30.204 42.4839 29.8365L42.4698 33.8359L38.9281 34.5849V18.1069H42.0448L42.2289 18.9831ZM42.4839 26.9536C42.8239 27.321 43.3197 27.6178 44.1555 27.6178C45.4589 27.6178 46.3372 26.2046 46.3372 24.3109C46.3372 22.4596 45.4447 21.0181 44.1555 21.0181C43.348 21.0181 42.838 21.3007 42.4697 21.7106L42.4839 26.9536Z" fill="#6461FC"/>
</svg>
